# xmcd CD database file
#
# Track frame offsets:
#	150
#	12897
#	27077
#	38392
#	55230
#	65152
#	76677
#	86560
#	98052
#	110520
#	122397
#	136862
#
# Disc length: 1998 seconds
#
# Revision: 1
# Processed by: cddbd v1.5.2PL0 Copyright (c) Steve Scherf et al.
# Submitted via: CDex 1.51
#
DISCID=8607cc0c
DTITLE=Neil Sedaka - I Grandi Successi Originali - CD 2
DYEAR=2009
DGENRE=Oldies
TTITLE0=La notte è fatta per amare
TTITLE1=Manuela
TTITLE2=Che non farei
TTITLE3=Ricordando (Fumo negli occhi)
TTITLE4=Se c'è un paradiso
TTITLE5=Viene la notte
TTITLE6=La luna a fiori
TTITLE7=I primi giorni
TTITLE8=L'ultima foglia
TTITLE9=Non basta mai
TTITLE10=Sorridi (Smile)
TTITLE11=Lettera bruciata
EXTD=YEAR: 2009
EXTT0=
EXTT1=
EXTT2=
EXTT3=
EXTT4=
EXTT5=
EXTT6=
EXTT7=
EXTT8=
EXTT9=
EXTT10=
EXTT11=
PLAYORDER=
